<svg width="32" height="43" viewBox="0 0 32 43" fill="none" xmlns="http://www.w3.org/2000/svg">
<mask id="mask0_198_26" style="mask-type:luminance" maskUnits="userSpaceOnUse" x="0" y="0" width="32" height="43">
<path d="M0 0H31.07V42.38H0V0Z" fill="white"/>
</mask>
<g mask="url(#mask0_198_26)">
<mask id="mask1_198_26" style="mask-type:luminance" maskUnits="userSpaceOnUse" x="0" y="0" width="32" height="43">
<path d="M31.034 19.4542C30.9805 19.2274 30.8715 19.0175 30.7178 18.8435C30.5641 18.6688 30.3691 18.5354 30.1511 18.4542L19.984 14.6375L22.5711 1.6842C22.6293 1.38357 22.5887 1.07144 22.4546 0.795862C22.3206 0.520289 22.1005 0.295497 21.8277 0.156018C21.5548 0.0165391 21.2447 -0.0301795 20.9427 0.0219559C20.6407 0.0747685 20.3645 0.224404 20.1546 0.447841L0.387819 21.6446C0.227351 21.8139 0.111569 22.0204 0.0499548 22.2452C-0.0116598 22.4707 -0.0163994 22.7076 0.0364131 22.9351C0.0885485 23.162 0.196882 23.3732 0.35058 23.5486C0.504278 23.7239 0.699278 23.8587 0.917299 23.9406L11.0884 27.758L8.50808 40.6964C8.44985 40.997 8.49048 41.3091 8.62454 41.5847C8.7586 41.8603 8.97865 42.0851 9.25152 42.2246C9.52438 42.364 9.83517 42.4114 10.1365 42.3586C10.4384 42.3058 10.7147 42.1562 10.9246 41.9327L30.6914 20.7366C30.8491 20.5674 30.9629 20.3615 31.0225 20.1381C31.082 19.9147 31.0861 19.6797 31.034 19.4542ZM12.2517 36.3813L14.0994 27.129C14.1658 26.8006 14.113 26.46 13.9518 26.1669C13.79 25.8737 13.53 25.6475 13.2172 25.5284L3.89105 22.0224L18.8262 6.00873L16.9797 15.2604C16.9134 15.5888 16.9662 15.93 17.1274 16.2232C17.2892 16.5164 17.5499 16.7419 17.862 16.861L27.1807 20.3588L12.2517 36.3813Z" fill="white"/>
</mask>
<g mask="url(#mask1_198_26)">
<path d="M0 -0.00012207V42.3799H31.07V-0.00012207H0Z" fill="white"/>
</g>
</g>
</svg>
