<?xml version="1.0" standalone="no"?>
<!DOCTYPE svg PUBLIC "-//W3C//DTD SVG 1.1//EN" "http://www.w3.org/Graphics/SVG/1.1/DTD/svg11.dtd">
<svg xmlns="http://www.w3.org/2000/svg" width="212" height="43" viewBox="0 0 212 43" fill="none">
<mask id="mask0_157_69" style="mask-type:luminance" maskUnits="userSpaceOnUse" x="43" y="4" width="169" height="35">
<path d="M63.835 21.8501C65.9054 22.1938 67.6055 23.1126 68.9396 24.6085C70.2715 26.1026 70.9385 27.817 70.9385 29.748C70.9385 31.4923 70.4461 33.0349 69.4656 34.374C68.5187 35.6831 67.1321 36.7103 65.3079 37.4592C63.4836 38.2062 61.3269 38.5797 58.8377 38.5797H43V5.9628H58.1539C60.643 5.9628 62.7829 6.32138 64.5714 7.03665C66.3957 7.75379 67.7634 8.75107 68.6765 10.0285C69.6234 11.3059 70.0968 12.7533 70.0968 14.3743C70.0968 16.2736 69.5182 17.8629 68.3609 19.1403C67.2373 20.4177 65.7287 21.3216 63.835 21.8501ZM50.3665 19.4204H57.1018C58.8545 19.4204 60.2054 19.0787 61.1522 18.3933C62.0991 17.6761 62.5725 16.6639 62.5725 15.3548C62.5725 14.0475 62.0991 13.0353 61.1522 12.3181C60.2054 11.601 58.8545 11.2424 57.1018 11.2424H50.3665V19.4204ZM57.7856 33.2535C59.5741 33.2535 60.9586 32.8799 61.9413 32.131C62.9576 31.384 63.4667 30.3251 63.4667 28.9543C63.4667 27.5518 62.9407 26.4611 61.8887 25.6824C60.8366 24.8737 59.4163 24.4685 57.6278 24.4685H50.3665V33.2535H57.7856ZM99.485 5.9628V11.2424H84.1734V19.6072H95.9059V24.7953H84.1734V38.5797H76.809V5.9628H99.485ZM112.072 4V38.5797H104.707V4H112.072ZM117.456 25.5423C117.456 22.9258 118.035 20.6045 119.192 18.58C120.385 16.5556 121.98 14.9981 123.979 13.9074C126.014 12.8167 128.276 12.2714 130.767 12.2714C132.94 12.2714 134.836 12.6599 136.448 13.4386C138.098 14.2193 139.413 15.1998 140.395 16.3838V12.6916H147.812V38.5797H140.395V34.7961C139.449 36.01 138.133 37.0222 136.448 37.8327C134.801 38.6115 132.888 38.9999 130.714 38.9999C128.259 38.9999 126.014 38.4397 123.979 37.3191C121.98 36.1967 120.385 34.6242 119.192 32.5979C118.035 30.5436 117.456 28.1905 117.456 25.5423ZM140.395 25.6357C140.395 24.0464 140.044 22.6924 139.343 21.57C138.641 20.4177 137.694 19.5456 136.501 18.9535C135.31 18.3298 134.028 18.0198 132.661 18.0198C131.293 18.0198 130.031 18.3148 128.873 18.9069C127.716 19.4989 126.769 20.371 126.033 21.5233C125.33 22.6457 124.979 23.9848 124.979 25.5423C124.979 27.0998 125.33 28.4706 126.033 29.6547C126.769 30.8069 127.716 31.6959 128.873 32.3178C130.066 32.9416 131.329 33.2535 132.661 33.2535C134.028 33.2535 135.31 32.9565 136.501 32.3645C137.694 31.7426 138.641 30.8704 139.343 29.748C140.044 28.5958 140.395 27.225 140.395 25.6357ZM166.16 38.9999C163.776 38.9999 161.636 38.6264 159.743 37.8794C157.847 37.1006 156.34 36.0567 155.217 34.7475C154.131 33.4402 153.533 31.991 153.428 30.4017H160.847C160.986 31.399 161.531 32.2244 162.478 32.8799C163.461 33.5336 164.671 33.8604 166.108 33.8604C167.511 33.8604 168.599 33.612 169.369 33.1134C170.177 32.6147 170.579 31.976 170.579 31.1973C170.579 30.355 170.089 29.7331 169.106 29.3278C168.159 28.8908 166.634 28.4239 164.53 27.9253C162.356 27.4584 160.565 26.9766 159.164 26.4779C157.794 25.9793 156.603 25.2155 155.585 24.1883C154.604 23.1593 154.112 21.7736 154.112 20.0293C154.112 18.595 154.569 17.2877 155.48 16.1037C156.427 14.9196 157.761 13.984 159.48 13.2986C161.232 12.6132 163.284 12.2714 165.634 12.2714C169.106 12.2714 171.877 13.0502 173.948 14.6077C176.016 16.1335 177.156 18.2065 177.367 20.823H170.316C170.211 19.794 169.72 18.9853 168.843 18.3933C168.001 17.7695 166.863 17.4576 165.424 17.4576C164.092 17.4576 163.057 17.6761 162.32 18.1131C161.618 18.5483 161.268 19.1552 161.268 19.9359C161.268 20.808 161.758 21.4766 162.741 21.9435C163.724 22.3805 165.249 22.8325 167.318 23.2994C169.422 23.7662 171.16 24.2499 172.527 24.7486C173.895 25.2472 175.069 26.026 176.052 27.0849C177.068 28.1121 177.594 29.4828 177.63 31.1973C177.63 32.6932 177.156 34.0322 176.21 35.2163C175.298 36.4003 173.964 37.3341 172.212 38.0195C170.493 38.6731 168.475 38.9999 166.16 38.9999ZM200.091 12.3181C202.301 12.3181 204.264 12.7533 205.985 13.6273C207.704 14.4677 209.036 15.7301 209.983 17.4109C210.965 19.0619 211.456 21.0564 211.456 23.3927V38.5797H204.089V24.2817C204.089 22.2255 203.51 20.6512 202.353 19.5605C201.196 18.44 199.618 17.8797 197.619 17.8797C195.584 17.8797 193.97 18.44 192.777 19.5605C191.62 20.6512 191.041 22.2255 191.041 24.2817V38.5797H183.677V4H191.041V15.9169C191.988 14.7945 193.251 13.9223 194.831 13.2986C196.409 12.6449 198.162 12.3181 200.091 12.3181Z" fill="white"/>
</mask>
<g mask="url(#mask0_157_69)">
<path d="M43 4V38.9999H211.456V4H43Z" fill="url(#paint0_linear_157_69)"/>
</g>
<mask id="mask1_157_69" style="mask-type:luminance" maskUnits="userSpaceOnUse" x="0" y="0" width="32" height="43">
<path d="M0 0H31.07V42.38H0V0Z" fill="white"/>
</mask>
<g mask="url(#mask1_157_69)">
<mask id="mask2_157_69" style="mask-type:luminance" maskUnits="userSpaceOnUse" x="0" y="0" width="32" height="43">
<path d="M31.034 19.4542C30.9805 19.2274 30.8715 19.0175 30.7178 18.8435C30.5641 18.6688 30.3691 18.5354 30.1511 18.4542L19.984 14.6375L22.5711 1.6842C22.6293 1.38357 22.5887 1.07144 22.4546 0.795862C22.3206 0.520289 22.1005 0.295497 21.8277 0.156018C21.5548 0.0165391 21.2447 -0.0301795 20.9427 0.0219559C20.6407 0.0747685 20.3645 0.224404 20.1546 0.447841L0.387819 21.6446C0.227351 21.8139 0.111569 22.0204 0.0499548 22.2452C-0.0116598 22.4707 -0.0163994 22.7076 0.0364131 22.9351C0.0885485 23.162 0.196882 23.3732 0.35058 23.5486C0.504278 23.7239 0.699278 23.8587 0.917299 23.9406L11.0884 27.758L8.50808 40.6964C8.44985 40.997 8.49048 41.3091 8.62454 41.5847C8.7586 41.8603 8.97865 42.0851 9.25152 42.2246C9.52438 42.364 9.83517 42.4114 10.1365 42.3586C10.4384 42.3058 10.7147 42.1562 10.9246 41.9327L30.6914 20.7366C30.8491 20.5674 30.9629 20.3615 31.0225 20.1381C31.082 19.9147 31.0861 19.6797 31.034 19.4542ZM12.2517 36.3813L14.0994 27.129C14.1658 26.8006 14.113 26.46 13.9518 26.1669C13.79 25.8737 13.53 25.6475 13.2172 25.5284L3.89105 22.0224L18.8262 6.00873L16.9797 15.2604C16.9134 15.5888 16.9662 15.93 17.1274 16.2232C17.2892 16.5164 17.5499 16.7419 17.862 16.861L27.1807 20.3588L12.2517 36.3813Z" fill="white"/>
</mask>
<g mask="url(#mask2_157_69)">
<path d="M0 -0.00012207V42.3799H31.07V-0.00012207H0Z" fill="url(#paint1_linear_157_69)"/>
</g>
</g>
<defs>
<linearGradient id="paint0_linear_157_69" x1="40.7743" y1="14.3444" x2="208.97" y2="50.5485" gradientUnits="userSpaceOnUse">
<stop stop-color="#007F99"/>
<stop offset="0.0428091" stop-color="#007F99"/>
<stop offset="0.0625" stop-color="#007E99"/>
<stop offset="0.078125" stop-color="#007E99"/>
<stop offset="0.09375" stop-color="#007D98"/>
<stop offset="0.109375" stop-color="#007C98"/>
<stop offset="0.125" stop-color="#007C98"/>
<stop offset="0.140625" stop-color="#007B97"/>
<stop offset="0.15625" stop-color="#007A97"/>
<stop offset="0.171875" stop-color="#007997"/>
<stop offset="0.1875" stop-color="#007996"/>
<stop offset="0.203125" stop-color="#007896"/>
<stop offset="0.21875" stop-color="#007796"/>
<stop offset="0.234375" stop-color="#007695"/>
<stop offset="0.25" stop-color="#007595"/>
<stop offset="0.265625" stop-color="#007595"/>
<stop offset="0.28125" stop-color="#007494"/>
<stop offset="0.296875" stop-color="#007394"/>
<stop offset="0.3125" stop-color="#007294"/>
<stop offset="0.328125" stop-color="#007293"/>
<stop offset="0.34375" stop-color="#007193"/>
<stop offset="0.359375" stop-color="#007093"/>
<stop offset="0.375" stop-color="#006F92"/>
<stop offset="0.390625" stop-color="#006F92"/>
<stop offset="0.40625" stop-color="#006E92"/>
<stop offset="0.421875" stop-color="#006D91"/>
<stop offset="0.4375" stop-color="#006C91"/>
<stop offset="0.453125" stop-color="#006C91"/>
<stop offset="0.46875" stop-color="#006B90"/>
<stop offset="0.484375" stop-color="#006A90"/>
<stop offset="0.5" stop-color="#006990"/>
<stop offset="0.515625" stop-color="#00688F"/>
<stop offset="0.53125" stop-color="#00688F"/>
<stop offset="0.546875" stop-color="#00678F"/>
<stop offset="0.5625" stop-color="#00668E"/>
<stop offset="0.578125" stop-color="#00658E"/>
<stop offset="0.59375" stop-color="#00658E"/>
<stop offset="0.609375" stop-color="#00648D"/>
<stop offset="0.625" stop-color="#00638D"/>
<stop offset="0.640625" stop-color="#00628D"/>
<stop offset="0.65625" stop-color="#00628C"/>
<stop offset="0.671875" stop-color="#00618C"/>
<stop offset="0.6875" stop-color="#00608C"/>
<stop offset="0.703125" stop-color="#005F8B"/>
<stop offset="0.71875" stop-color="#005F8B"/>
<stop offset="0.734375" stop-color="#005E8B"/>
<stop offset="0.75" stop-color="#005D8A"/>
<stop offset="0.765625" stop-color="#005C8A"/>
<stop offset="0.78125" stop-color="#005B8A"/>
<stop offset="0.796875" stop-color="#005B89"/>
<stop offset="0.8125" stop-color="#005A89"/>
<stop offset="0.828125" stop-color="#005989"/>
<stop offset="0.84375" stop-color="#005888"/>
<stop offset="0.859375" stop-color="#005888"/>
<stop offset="0.875" stop-color="#005788"/>
<stop offset="0.890625" stop-color="#005687"/>
<stop offset="0.90625" stop-color="#005587"/>
<stop offset="0.921875" stop-color="#005587"/>
<stop offset="0.9375" stop-color="#005486"/>
<stop offset="0.953125" stop-color="#005386"/>
<stop offset="0.957191" stop-color="#005286"/>
<stop offset="0.96875" stop-color="#005286"/>
<stop offset="0.984375" stop-color="#005285"/>
<stop offset="1" stop-color="#005185"/>
</linearGradient>
<linearGradient id="paint1_linear_157_69" x1="15.5353" y1="6.2798e-06" x2="15.5353" y2="42.38" gradientUnits="userSpaceOnUse">
<stop stop-color="#008A9E"/>
<stop offset="0.015625" stop-color="#00899E"/>
<stop offset="0.03125" stop-color="#00889D"/>
<stop offset="0.046875" stop-color="#00889D"/>
<stop offset="0.0625" stop-color="#00879D"/>
<stop offset="0.078125" stop-color="#00869C"/>
<stop offset="0.09375" stop-color="#00859C"/>
<stop offset="0.109375" stop-color="#00849B"/>
<stop offset="0.125" stop-color="#00839B"/>
<stop offset="0.140625" stop-color="#00829B"/>
<stop offset="0.15625" stop-color="#00819A"/>
<stop offset="0.171875" stop-color="#00809A"/>
<stop offset="0.1875" stop-color="#007F99"/>
<stop offset="0.203125" stop-color="#007E99"/>
<stop offset="0.21875" stop-color="#007D98"/>
<stop offset="0.234375" stop-color="#007C98"/>
<stop offset="0.25" stop-color="#007B98"/>
<stop offset="0.265625" stop-color="#007A97"/>
<stop offset="0.28125" stop-color="#007997"/>
<stop offset="0.296875" stop-color="#007896"/>
<stop offset="0.3125" stop-color="#007796"/>
<stop offset="0.328125" stop-color="#007695"/>
<stop offset="0.34375" stop-color="#007595"/>
<stop offset="0.359375" stop-color="#007495"/>
<stop offset="0.375" stop-color="#007394"/>
<stop offset="0.390625" stop-color="#007294"/>
<stop offset="0.40625" stop-color="#007193"/>
<stop offset="0.421875" stop-color="#007093"/>
<stop offset="0.4375" stop-color="#006F92"/>
<stop offset="0.453125" stop-color="#006E92"/>
<stop offset="0.46875" stop-color="#006D92"/>
<stop offset="0.484375" stop-color="#006C91"/>
<stop offset="0.5" stop-color="#006B91"/>
<stop offset="0.515625" stop-color="#006A90"/>
<stop offset="0.53125" stop-color="#006A90"/>
<stop offset="0.546875" stop-color="#006990"/>
<stop offset="0.5625" stop-color="#00688F"/>
<stop offset="0.578125" stop-color="#00678F"/>
<stop offset="0.59375" stop-color="#00668E"/>
<stop offset="0.609375" stop-color="#00658E"/>
<stop offset="0.625" stop-color="#00648D"/>
<stop offset="0.640625" stop-color="#00638D"/>
<stop offset="0.65625" stop-color="#00628D"/>
<stop offset="0.671875" stop-color="#00618C"/>
<stop offset="0.6875" stop-color="#00608C"/>
<stop offset="0.703125" stop-color="#005F8B"/>
<stop offset="0.71875" stop-color="#005E8B"/>
<stop offset="0.734375" stop-color="#005D8A"/>
<stop offset="0.75" stop-color="#005C8A"/>
<stop offset="0.765625" stop-color="#005B8A"/>
<stop offset="0.78125" stop-color="#005A89"/>
<stop offset="0.796875" stop-color="#005989"/>
<stop offset="0.8125" stop-color="#005888"/>
<stop offset="0.828125" stop-color="#005788"/>
<stop offset="0.84375" stop-color="#005687"/>
<stop offset="0.859375" stop-color="#005587"/>
<stop offset="0.875" stop-color="#005487"/>
<stop offset="0.890625" stop-color="#005386"/>
<stop offset="0.90625" stop-color="#005286"/>
<stop offset="0.921875" stop-color="#005185"/>
<stop offset="0.9375" stop-color="#005085"/>
<stop offset="0.953125" stop-color="#004F85"/>
<stop offset="0.96875" stop-color="#004E84"/>
<stop offset="0.984375" stop-color="#004D84"/>
<stop offset="1" stop-color="#004C83"/>
</linearGradient>
</defs>
</svg>